# xmcd
#
# Track frame offsets:
# 150
# 13657
# 31540
# 44534
# 61731
# 76785
# 92430
# 107922
# 122576
# 139163
# 157159
# 171536
#
# Disc length: 2590 seconds
#
#
# Revision: 0
# Processed by: cddbd v1.5.2PL0 Copyright (c) Steve Scherf et al.
# Submitted via: FreeRIP 2.944 
#
DISCID=930a1c0c
DTITLE=Rodney and Eduardo - Hora de Recomeçar
DYEAR=2008
DGENRE=Country
TTITLE0=Bate o Pé Sobe a Poeira
TTITLE1=Hora de Recomeçar
TTITLE2=Ombro Amigo
TTITLE3=Jeito Carente
TTITLE4=Seu Brilho Olhar
TTITLE5=Amor Meu Vício
TTITLE6=Gavião e Rolinha
TTITLE7=Chorei Largado
TTITLE8=Amor Volta Pra Mim
TTITLE9=Casinha de Sapé
TTITLE10=Ponteio da Viola
TTITLE11=Cheiro de Relva and Pombinha Mensageira
EXTD=
EXTT0=
EXTT1=
EXTT2=
EXTT3=
EXTT4=
EXTT5=
EXTT6=
EXTT7=
EXTT8=
EXTT9=
EXTT10=
EXTT11=
PLAYORDER=
